HIERARCHY
ROOT Hips
{
	OFFSET 0.000000 97.167313 0.000000
	CHANNELS 6 Xposition Yposition Zposition Xrotation Yrotation Zrotation
	JOINT Spine
	{
		OFFSET 0.000000 13.784798 0.064400
		CHANNELS 3 Xrotation Yrotation Zrotation
		JOINT Spine1
		{
			OFFSET 0.000000 12.037903 0.404700
			CHANNELS 3 Xrotation Yrotation Zrotation
			JOINT Spine2
			{
				OFFSET 0.000000 17.795601 0.420200
				CHANNELS 3 Xrotation Yrotation Zrotation
				JOINT Neck
				{
					OFFSET 0.000000 39.131302 11.954600
					CHANNELS 3 Xrotation Yrotation Zrotation
					JOINT Head
					{
						OFFSET 0.000000 14.456192 15.627699
						CHANNELS 3 Xrotation Yrotation Zrotation
						JOINT HeadTop_End
						{
							OFFSET 0.000000 15.703506 7.603401
							CHANNELS 3 Xrotation Yrotation Zrotation
							End Site
							{
								OFFSET 0.000000 17.447403 0.000000
							}
						}
					}
				}
				JOINT LeftShoulder
				{
					OFFSET 17.399500 24.608795 1.168800
					CHANNELS 3 Xrotation Yrotation Zrotation
					JOINT LeftArm
					{
						OFFSET 18.980635 5.765305 1.818600
						CHANNELS 3 Xrotation Yrotation Zrotation
						JOINT LeftForeArm
						{
							OFFSET 49.290169 0.000000 0.000000
							CHANNELS 3 Xrotation Yrotation Zrotation
							JOINT LeftHand
							{
								OFFSET 31.562012 0.000000 0.000000
								CHANNELS 3 Xrotation Yrotation Zrotation
								JOINT LeftHandThumb1
								{
									OFFSET 6.133995 -4.388519 7.076070
									CHANNELS 3 Xrotation Yrotation Zrotation
									JOINT LeftHandThumb2
									{
										OFFSET 6.037666 -3.485840 3.485847
										CHANNELS 3 Xrotation Yrotation Zrotation
										JOINT LeftHandThumb3
										{
											OFFSET 6.496506 -3.750763 3.750761
											CHANNELS 3 Xrotation Yrotation Zrotation
											JOINT LeftHandThumb4
											{
												OFFSET 5.616882 -3.242905 3.242910
												CHANNELS 3 Xrotation Yrotation Zrotation
												End Site
												{
													OFFSET -1.254608 7.132141 0.375429
												}
											}
										}
									}
								}
								JOINT LeftHandPinky1
								{
									OFFSET 18.920792 -0.453171 -11.426712
									CHANNELS 3 Xrotation Yrotation Zrotation
									JOINT LeftHandPinky2
									{
										OFFSET 4.919586 0.000000 0.000000
										CHANNELS 3 Xrotation Yrotation Zrotation
										JOINT LeftHandPinky3
										{
											OFFSET 5.233047 0.000000 0.000000
											CHANNELS 3 Xrotation Yrotation Zrotation
											JOINT LeftHandPinky4
											{
												OFFSET 5.571716 0.000000 0.000000
												CHANNELS 3 Xrotation Yrotation Zrotation
												End Site
												{
													OFFSET -3.459808 4.342407 -0.466164
												}
											}
										}
									}
								}
								JOINT LeftHandRing1
								{
									OFFSET 22.726120 -0.094986 -6.500475
									CHANNELS 3 Xrotation Yrotation Zrotation
									JOINT LeftHandRing2
									{
										OFFSET 6.408615 0.000000 0.000000
										CHANNELS 3 Xrotation Yrotation Zrotation
										JOINT LeftHandRing3
										{
											OFFSET 6.150223 0.000000 0.000000
											CHANNELS 3 Xrotation Yrotation Zrotation
											JOINT LeftHandRing4
											{
												OFFSET 6.145386 0.000000 0.000000
												CHANNELS 3 Xrotation Yrotation Zrotation
												End Site
												{
													OFFSET -3.671402 4.923981 -0.202372
												}
											}
										}
									}
								}
								JOINT LeftHandMiddle1
								{
									OFFSET 23.373947 0.000000 0.000001
									CHANNELS 3 Xrotation Yrotation Zrotation
									JOINT LeftHandMiddle2
									{
										OFFSET 6.996567 0.000000 0.000000
										CHANNELS 3 Xrotation Yrotation Zrotation
										JOINT LeftHandMiddle3
										{
											OFFSET 7.015945 0.000000 0.000000
											CHANNELS 3 Xrotation Yrotation Zrotation
											JOINT LeftHandMiddle4
											{
												OFFSET 7.721573 0.000000 0.000000
												CHANNELS 3 Xrotation Yrotation Zrotation
												End Site
												{
													OFFSET -4.651108 6.158463 0.251582
												}
											}
										}
									}
								}
								JOINT LeftHandIndex1
								{
									OFFSET 21.310577 -0.490082 6.209344
									CHANNELS 3 Xrotation Yrotation Zrotation
									JOINT LeftHandIndex2
									{
										OFFSET 7.536453 0.000000 0.000000
										CHANNELS 3 Xrotation Yrotation Zrotation
										JOINT LeftHandIndex3
										{
											OFFSET 7.512344 0.000000 0.000000
											CHANNELS 3 Xrotation Yrotation Zrotation
											JOINT LeftHandIndex4
											{
												OFFSET 10.212402 0.000000 0.000001
												CHANNELS 3 Xrotation Yrotation Zrotation
												End Site
												{
													OFFSET -5.180801 8.690506 1.388433
												}
											}
										}
									}
								}
							}
						}
					}
				}
				JOINT RightShoulder
				{
					OFFSET -17.399500 24.608795 1.168800
					CHANNELS 3 Xrotation Yrotation Zrotation
					JOINT RightArm
					{
						OFFSET -18.980635 5.765305 1.818600
						CHANNELS 3 Xrotation Yrotation Zrotation
						JOINT RightForeArm
						{
							OFFSET -49.290169 0.000000 0.000000
							CHANNELS 3 Xrotation Yrotation Zrotation
							JOINT RightHand
							{
								OFFSET -31.562012 0.000000 0.000000
								CHANNELS 3 Xrotation Yrotation Zrotation
								JOINT RightHandThumb1
								{
									OFFSET -6.133995 -4.388519 7.076070
									CHANNELS 3 Xrotation Yrotation Zrotation
									JOINT RightHandThumb2
									{
										OFFSET -6.037666 -3.485840 3.485847
										CHANNELS 3 Xrotation Yrotation Zrotation
										JOINT RightHandThumb3
										{
											OFFSET -6.496506 -3.750763 3.750761
											CHANNELS 3 Xrotation Yrotation Zrotation
											JOINT RightHandThumb4
											{
												OFFSET -5.616882 -3.242905 3.242910
												CHANNELS 3 Xrotation Yrotation Zrotation
												End Site
												{
													OFFSET 1.254608 7.132141 0.375429
												}
											}
										}
									}
								}
								JOINT RightHandIndex1
								{
									OFFSET -21.310577 -0.490082 6.209344
									CHANNELS 3 Xrotation Yrotation Zrotation
									JOINT RightHandIndex2
									{
										OFFSET -7.536453 0.000000 0.000000
										CHANNELS 3 Xrotation Yrotation Zrotation
										JOINT RightHandIndex3
										{
											OFFSET -7.512344 0.000000 0.000000
											CHANNELS 3 Xrotation Yrotation Zrotation
											JOINT RightHandIndex4
											{
												OFFSET -10.212402 0.000000 0.000001
												CHANNELS 3 Xrotation Yrotation Zrotation
												End Site
												{
													OFFSET 5.180801 8.690506 1.388433
												}
											}
										}
									}
								}
								JOINT RightHandMiddle1
								{
									OFFSET -23.373947 0.000000 0.000001
									CHANNELS 3 Xrotation Yrotation Zrotation
									JOINT RightHandMiddle2
									{
										OFFSET -6.996567 0.000000 0.000000
										CHANNELS 3 Xrotation Yrotation Zrotation
										JOINT RightHandMiddle3
										{
											OFFSET -7.015945 0.000000 0.000000
											CHANNELS 3 Xrotation Yrotation Zrotation
											JOINT RightHandMiddle4
											{
												OFFSET -7.721573 0.000000 0.000000
												CHANNELS 3 Xrotation Yrotation Zrotation
												End Site
												{
													OFFSET 4.651108 6.158463 0.251582
												}
											}
										}
									}
								}
								JOINT RightHandRing1
								{
									OFFSET -22.726120 -0.094986 -6.500475
									CHANNELS 3 Xrotation Yrotation Zrotation
									JOINT RightHandRing2
									{
										OFFSET -6.408615 0.000000 0.000000
										CHANNELS 3 Xrotation Yrotation Zrotation
										JOINT RightHandRing3
										{
											OFFSET -6.150223 0.000000 0.000000
											CHANNELS 3 Xrotation Yrotation Zrotation
											JOINT RightHandRing4
											{
												OFFSET -6.145386 0.000000 0.000000
												CHANNELS 3 Xrotation Yrotation Zrotation
												End Site
												{
													OFFSET 3.671402 4.923981 -0.202372
												}
											}
										}
									}
								}
								JOINT RightHandPinky1
								{
									OFFSET -18.920792 -0.453171 -11.426712
									CHANNELS 3 Xrotation Yrotation Zrotation
									JOINT RightHandPinky2
									{
										OFFSET -4.919586 0.000000 0.000000
										CHANNELS 3 Xrotation Yrotation Zrotation
										JOINT RightHandPinky3
										{
											OFFSET -5.233047 0.000000 0.000000
											CHANNELS 3 Xrotation Yrotation Zrotation
											JOINT RightHandPinky4
											{
												OFFSET -5.571716 0.000000 0.000000
												CHANNELS 3 Xrotation Yrotation Zrotation
												End Site
												{
													OFFSET 3.459808 4.342407 -0.466164
												}
											}
										}
									}
								}
							}
						}
					}
				}
			}
		}
	}
	JOINT LeftUpLeg
	{
		OFFSET 19.899099 -7.885101 -3.429500
		CHANNELS 3 Xrotation Yrotation Zrotation
		JOINT LeftLeg
		{
			OFFSET 1.745560 -36.997807 10.304700
			CHANNELS 3 Xrotation Yrotation Zrotation
			JOINT LeftFoot
			{
				OFFSET -1.745558 -29.803308 -13.615400
				CHANNELS 3 Xrotation Yrotation Zrotation
				JOINT LeftToeBase
				{
					OFFSET 1.181900 -18.539904 15.226099
					CHANNELS 3 Xrotation Yrotation Zrotation
					JOINT LeftToe_End
					{
						OFFSET -0.863701 1.402801 16.534700
						CHANNELS 3 Xrotation Yrotation Zrotation
						End Site
						{
							OFFSET 0.000000 16.616566 0.000000
						}
					}
				}
			}
		}
	}
	JOINT RightUpLeg
	{
		OFFSET -19.899099 -7.885101 -3.429500
		CHANNELS 3 Xrotation Yrotation Zrotation
		JOINT RightLeg
		{
			OFFSET -1.745560 -36.997807 10.304700
			CHANNELS 3 Xrotation Yrotation Zrotation
			JOINT RightFoot
			{
				OFFSET 1.745558 -29.803308 -13.615400
				CHANNELS 3 Xrotation Yrotation Zrotation
				JOINT RightToeBase
				{
					OFFSET -1.181900 -18.539904 15.226099
					CHANNELS 3 Xrotation Yrotation Zrotation
					JOINT RightToe_End
					{
						OFFSET 0.863701 1.402801 16.534700
						CHANNELS 3 Xrotation Yrotation Zrotation
						End Site
						{
							OFFSET 0.000000 16.616566 0.000000
						}
					}
				}
			}
		}
	}
}
MOTION
Frames: 4
Frame Time: 0.033333
0.581263 50.562408 20.950060 0.146182 0.043880 0.853482 10.430209 0.146354 -1.478079 -0.199258 0.212284 -0.355501 -0.199584 0.248468 -0.304820 -1.001766 -1.287639 0.469445 -8.883534 -4.330325 -5.322033 -0.000000 0.000000 -0.000000 0.823522 -15.262018 -7.868742 4.746790 -21.216343 -54.862132 0.000045 -62.197601 0.000025 31.063021 4.315246 41.770121 6.610628 1.798243 20.801502 2.716409 20.172591 -24.389156 -5.537273 29.849498 5.070895 -0.000001 0.000001 0.000000 2.042395 10.867307 -13.918789 0.168519 1.396438 -13.761321 0.107157 1.116566 -10.963889 -0.000000 0.000004 -0.000005 1.797278 9.808021 -14.183871 0.205923 1.541088 -15.220440 0.265322 1.744714 -17.292065 -0.000000 -0.000002 0.000001 1.299134 7.334375 -16.510731 0.329982 1.940110 -19.302697 0.233120 1.637787 -16.201250 -0.000000 0.000001 0.000004 -0.236379 2.798934 -26.913003 0.396831 2.121287 -21.189287 0.083132 0.984442 -9.653146 -0.000003 0.000001 -0.000001 3.168525 -4.385407 8.782991 -3.950255 37.253460 63.733793 0.000019 55.137867 0.000003 43.537241 4.740997 -36.278044 -9.383504 -1.613366 -17.604717 3.557087 -24.337004 34.656831 -6.608511 -37.497308 -11.176217 -0.000000 -0.000002 -0.000001 2.957829 1.012869 13.529994 0.472460 -2.045686 26.006732 0.059744 -0.744404 9.177801 -0.000003 -0.000001 -0.000002 0.105536 -3.665056 2.525353 0.585008 -2.261691 29.000597 0.020462 -0.436573 5.367128 0.000000 -0.000000 -0.000004 0.456436 -7.644385 4.305908 0.107467 -0.995728 12.319042 0.072394 -0.818832 10.104469 -0.000001 0.000000 -0.000002 -11.162323 -10.227902 7.169820 0.029116 -0.520528 6.403074 0.028649 -0.516311 6.351263 -0.000000 0.000003 0.000006 -86.376041 -12.015063 20.545264 80.432745 -2.920028 -4.276058 8.669998 -5.948340 -9.530229 -0.103422 0.000006 0.000000 -0.000000 0.000001 0.000000 -88.136823 13.642036 -16.494391 81.379361 3.371500 2.593733 9.655825 -0.971007 10.705650 -0.199190 0.000000 -0.000002 0.000000 -0.000001 0.000000 
0.580400 50.564423 20.943958 0.165208 0.044104 0.855102 10.431113 0.146768 -1.478249 -0.219438 0.211652 -0.356671 -0.219801 0.247846 -0.304542 -1.018716 -1.287190 0.469905 -8.937944 -4.317356 -5.346114 -0.000000 -0.000001 0.000000 0.796101 -15.262070 -7.863307 4.648260 -21.173790 -54.991400 0.000040 -62.124430 0.000027 31.105453 4.294856 41.792012 6.796212 1.884711 20.775299 2.732932 20.238720 -24.546709 -5.424673 30.033209 5.018463 0.000001 0.000001 -0.000002 2.062938 10.855647 -14.099327 0.170769 1.405542 -13.853138 0.108820 1.125084 -11.048650 0.000001 0.000000 -0.000006 1.822400 9.817953 -14.386079 0.208113 1.549148 -15.301912 0.268674 1.755405 -17.401471 -0.000001 -0.000001 0.000003 1.325027 7.366659 -16.766277 0.336532 1.958732 -19.495568 0.237398 1.652408 -16.350177 -0.000000 0.000001 0.000001 -0.229873 2.860009 -27.309424 0.396858 2.121373 -21.190223 0.083149 0.984547 -9.654088 -0.000002 -0.000004 -0.000001 3.168962 -4.384261 8.791902 -4.004652 37.233574 63.774159 0.000025 55.070183 -0.000011 43.570938 4.746418 -36.312240 -9.619933 -0.943664 -17.764087 4.481004 -25.140089 33.961244 -6.094243 -36.912699 -10.547806 0.000001 0.000002 0.000005 3.013347 0.893423 14.158488 0.506003 -2.112999 26.930982 0.071783 -0.815468 10.062710 -0.000001 -0.000001 -0.000002 0.128034 -3.703924 3.538214 0.616217 -2.317057 29.782015 0.040942 -0.616924 7.595485 0.000001 -0.000001 -0.000007 0.475046 -7.301777 4.881249 0.151014 -1.177580 14.615392 0.108973 -1.002595 12.405430 -0.000000 -0.000000 -0.000003 -11.136295 -10.379964 6.959736 0.055371 -0.716812 8.834353 0.055378 -0.716784 8.834328 0.000001 0.000000 0.000001 -86.390514 -12.014388 20.547156 80.409563 -2.922614 -4.278693 8.688492 -5.947071 -9.540196 -0.103427 0.000009 0.000001 -0.000000 0.000001 0.000000 -88.161732 13.643485 -16.494915 81.359328 3.343065 2.593125 9.682800 -0.942813 10.691801 -0.199200 -0.000001 0.000000 0.000000 -0.000000 -0.000000 
0.580946 50.560783 20.945133 0.183381 0.041447 0.855405 10.426270 0.145493 -1.478830 -0.236083 0.211775 -0.364546 -0.236461 0.248122 -0.305188 -1.060385 -1.287042 0.482874 -8.973076 -4.316933 -5.359095 0.000000 0.000000 0.000000 0.749103 -15.170175 -7.748774 4.329664 -21.221053 -55.345166 0.000006 -61.951756 -0.000009 31.142661 4.305044 41.720664 7.134006 2.042338 20.725432 2.751211 20.284695 -24.807602 -5.236194 30.334646 4.908571 0.000001 -0.000002 -0.000001 2.101509 10.821965 -14.469255 0.175639 1.425172 -14.050621 0.112460 1.143568 -11.232453 0.000002 0.000004 -0.000005 1.870151 9.833033 -14.779001 0.212511 1.565128 -15.463606 0.275548 1.777189 -17.624823 -0.000001 0.000001 0.000002 1.376936 7.431797 -17.265209 0.349131 1.993942 -19.860793 0.245227 1.678822 -16.619271 0.000002 0.000001 0.000006 -0.218011 2.981819 -28.045959 0.396842 2.121323 -21.189629 0.083132 0.984468 -9.653494 -0.000000 0.000001 0.000001 3.156945 -4.391375 8.710540 -4.162419 37.249577 63.953513 -0.000001 54.934016 0.000019 43.553897 4.709369 -36.407562 -9.875850 -0.268021 -17.920668 5.342016 -25.936040 33.077124 -5.486703 -36.351728 -9.849363 -0.000003 -0.000001 -0.000001 3.095236 0.737914 15.062780 0.551486 -2.200210 28.139908 0.088679 -0.905486 11.187185 -0.000001 -0.000005 -0.000002 0.156063 -3.754332 4.793093 0.661564 -2.394510 30.885238 0.072840 -0.821349 10.136089 0.000003 -0.000000 -0.000004 0.493226 -6.904285 5.624201 0.210180 -1.384674 17.260897 0.160175 -1.212124 15.054447 0.000000 -0.000001 -0.000005 -11.115349 -10.547454 6.849123 0.095858 -0.941023 11.632401 0.096923 -0.946179 11.696929 0.000000 0.000003 0.000003 -86.409638 -12.016622 20.548971 80.410273 -2.923968 -4.278451 8.689590 -5.945447 -9.550924 -0.103430 0.000005 0.000000 -0.000000 0.000000 -0.000000 -88.195091 13.647576 -16.504580 81.347293 3.289534 2.596638 9.712986 -0.879804 10.667675 -0.199190 -0.000002 0.000003 0.000000 -0.000001 0.000000 
0.583276 50.560997 20.950285 0.215333 0.036106 0.847484 10.411916 0.144283 -1.479517 -0.266270 0.217408 -0.374753 -0.266643 0.253991 -0.306566 -1.112333 -1.291968 0.510935 -8.930751 -4.337215 -5.349511 0.000000 0.000000 -0.000000 0.719249 -15.069130 -7.506228 3.860451 -21.293822 -55.903261 0.000041 -61.870121 0.000011 30.700522 4.474695 41.377990 7.594395 2.255655 20.654431 2.769636 20.312440 -25.150539 -4.986388 30.729663 4.749731 -0.000000 0.000001 -0.000002 2.152802 10.769537 -14.990377 0.182732 1.453249 -14.333283 0.117774 1.169997 -11.495755 -0.000003 0.000003 -0.000004 1.936155 9.852151 -15.325075 0.218730 1.587376 -15.689587 0.285381 1.807901 -17.939540 -0.000000 -0.000001 -0.000000 1.450777 7.522435 -17.959532 0.366866 2.042367 -20.364602 0.256047 1.714639 -16.984814 -0.000001 0.000001 0.000001 -0.198722 3.151760 -29.055614 0.396741 2.121046 -21.186697 0.083079 0.984175 -9.650544 0.000000 -0.000000 -0.000001 3.133421 -4.393777 8.562783 -4.338102 37.389473 64.155885 0.000029 54.915766 -0.000035 43.138259 4.563952 -36.344437 -10.145404 0.413277 -18.074736 6.091722 -26.695458 31.960228 -4.807462 -35.804309 -9.099557 -0.000002 -0.000001 0.000002 3.202156 0.554565 16.188226 0.607971 -2.302616 29.577338 0.110701 -1.010416 12.503939 -0.000000 -0.000001 -0.000001 0.188673 -3.813880 6.242273 0.719574 -2.488843 32.246795 0.118294 -1.044086 12.927533 0.000003 -0.000001 -0.000001 0.504034 -6.462476 6.500460 0.286651 -1.610259 20.186897 0.227989 -1.440707 17.983169 0.000000 0.000001 -0.000003 -11.096448 -10.727018 6.818473 0.153283 -1.186207 14.725097 0.156188 -1.197194 14.864445 0.000000 0.000001 0.000002 -86.442417 -12.018973 20.549799 80.419303 -2.917383 -4.270913 8.682414 -5.942009 -9.551420 -0.103424 0.000002 0.000001 -0.000000 0.000001 0.000000 -88.229583 13.644110 -16.522465 81.325874 3.202236 2.602246 9.743039 -0.781663 10.640479 -0.199190 0.000005 0.000005 0.000000 0.000000 0.000000 
